<svg width="8" height="15" viewBox="0 0 8 15" fill="none" xmlns="http://www.w3.org/2000/svg">
<path d="M6.91778 8.40357L7.30139 5.98148H4.89809V4.41709C4.88126 4.23623 4.9068 4.05404 4.97281 3.88404C5.03882 3.71403 5.14361 3.56059 5.27939 3.4351C5.41518 3.30961 5.57846 3.2153 5.75713 3.15917C5.9358 3.10304 6.12525 3.08654 6.31142 3.11089H7.40214V1.05243C6.76163 0.952382 6.1144 0.897737 5.46564 0.88893C5.01909 0.855503 4.57041 0.917534 4.15146 1.07062C3.73251 1.2237 3.35358 1.46408 3.04158 1.77468C2.72959 2.08528 2.49219 2.45848 2.34625 2.86776C2.20031 3.27704 2.14941 3.71236 2.19716 4.1428V5.98148H0V8.40357H2.19716V14.2484H4.90179V8.40357H6.91778Z" fill="#C38D00"/>
</svg>
