<svg width="16" height="15" viewBox="0 0 16 15" fill="none" xmlns="http://www.w3.org/2000/svg">
<path d="M8.17951 3.50939C7.42264 3.50939 6.68277 3.72633 6.05346 4.13276C5.42415 4.53919 4.93366 5.11686 4.64402 5.79273C4.35438 6.46859 4.2786 7.2123 4.42626 7.9298C4.57392 8.6473 4.93838 9.30636 5.47357 9.82365C6.00875 10.3409 6.69062 10.6932 7.43294 10.8359C8.17526 10.9786 8.9447 10.9054 9.64396 10.6254C10.3432 10.3455 10.9409 9.87141 11.3614 9.26314C11.7819 8.65488 12.0063 7.93975 12.0063 7.2082C12.0071 6.72223 11.9087 6.24088 11.7167 5.79175C11.5247 5.34262 11.2429 4.93454 10.8874 4.59091C10.5318 4.24728 10.1096 3.97486 9.64496 3.78927C9.18029 3.60368 8.68229 3.50857 8.17951 3.50939V3.50939ZM8.17951 9.61331C7.68736 9.61331 7.20627 9.47225 6.79707 9.20798C6.38786 8.9437 6.06893 8.56807 5.88059 8.12859C5.69225 7.68912 5.64298 7.20553 5.73899 6.73898C5.835 6.27244 6.07199 5.84389 6.41999 5.50752C6.76799 5.17116 7.21137 4.9421 7.69406 4.8493C8.17675 4.75649 8.67707 4.80412 9.13175 4.98616C9.58644 5.1682 9.97506 5.47647 10.2485 5.87199C10.5219 6.26751 10.6678 6.73251 10.6678 7.2082C10.6652 7.84503 10.402 8.455 9.9359 8.90506C9.46975 9.35512 8.83838 9.60875 8.17951 9.61063V9.61331ZM13.0554 3.3593C13.0554 3.52999 13.0031 3.69686 12.9049 3.83879C12.8068 3.98071 12.6674 4.09133 12.5042 4.15666C12.3411 4.22198 12.1615 4.23907 11.9883 4.20577C11.8151 4.17247 11.656 4.09027 11.5311 3.96957C11.4062 3.84887 11.3212 3.69509 11.2867 3.52767C11.2523 3.36026 11.27 3.18672 11.3376 3.02902C11.4051 2.87132 11.5196 2.73653 11.6664 2.6417C11.8133 2.54686 11.9859 2.49624 12.1625 2.49624C12.2796 2.49589 12.3957 2.51789 12.504 2.56097C12.6123 2.60405 12.7108 2.66736 12.7937 2.74729C12.8767 2.82722 12.9425 2.92219 12.9874 3.02675C13.0323 3.13131 13.0554 3.24341 13.0554 3.35662V3.3593ZM15.59 4.23486C15.6155 3.11395 15.1839 2.02831 14.3883 1.21239C13.5425 0.445966 12.4204 0.029197 11.2613 0.0509255C10.0291 -0.0169752 6.33544 -0.0169752 5.10329 0.0509255C3.94238 0.0270684 2.81805 0.444054 1.97162 1.21239C1.17732 2.02909 0.745912 3.1142 0.769973 4.23486C0.699723 5.4258 0.699723 8.99595 0.769973 10.1869C0.74442 11.3078 1.17604 12.3934 1.97162 13.2094C2.81775 13.9753 3.93962 14.392 5.09867 14.3708C6.33082 14.4387 10.0245 14.4387 11.2566 14.3708C12.4163 14.3955 13.5396 13.9783 14.3837 13.2094C15.1766 12.3918 15.6078 11.3073 15.5853 10.1869C15.6556 8.99595 15.6556 5.42938 15.5853 4.23754L15.59 4.23486ZM13.9983 11.4618C13.8716 11.7722 13.6803 12.0541 13.4362 12.29C13.1921 12.5259 12.9005 12.7108 12.5794 12.8332C11.5968 13.2103 9.26561 13.1227 8.17951 13.1227C7.09341 13.1227 4.75944 13.2067 3.77964 12.8332C3.45853 12.7108 3.16689 12.5259 2.92281 12.29C2.67874 12.0541 2.48743 11.7722 2.36077 11.4618C1.97069 10.5121 2.06128 8.25887 2.06128 7.20909C2.06128 6.15931 1.97439 3.9034 2.36077 2.95636C2.48743 2.646 2.67874 2.36411 2.92281 2.1282C3.16689 1.89228 3.45853 1.70737 3.77964 1.58495C4.76221 1.21239 7.09618 1.29458 8.17951 1.29458C9.26284 1.29458 11.5996 1.2106 12.5794 1.58405C12.9005 1.70648 13.1921 1.89139 13.4362 2.1273C13.6803 2.36322 13.8716 2.64511 13.9983 2.95547C14.3883 3.90518 14.2977 6.15842 14.2977 7.2082C14.2977 8.25798 14.3874 10.5148 13.9983 11.4609V11.4618Z" fill="#C38D00"/>
</svg>
