<svg width="15" height="15" viewBox="0 0 15 15" fill="none" xmlns="http://www.w3.org/2000/svg">
<path d="M3.41875 14.4164H0.325892V4.78788H3.41875V14.4164ZM1.87047 3.479C1.51473 3.48058 1.16648 3.38022 0.869717 3.1906C0.572955 3.00097 0.340993 2.7306 0.203132 2.41362C0.0652704 2.09663 0.0276951 1.74727 0.0951522 1.40966C0.162609 1.07205 0.332073 0.761336 0.582135 0.516768C0.832198 0.2722 1.15164 0.10475 1.50011 0.0355703C1.84859 -0.0336093 2.21045 -0.00141468 2.54001 0.128087C2.86956 0.257589 3.15201 0.478589 3.35168 0.763169C3.55135 1.04775 3.65929 1.38314 3.66185 1.72698C3.66357 2.1886 3.47607 2.6321 3.14036 2.96043C2.80464 3.28877 2.34805 3.47522 1.87047 3.479V3.479ZM14.9961 14.4208H11.9107V9.73301C11.9107 8.61623 11.8876 7.18316 10.3023 7.18316C8.69397 7.18316 8.44717 8.39644 8.44717 9.65261V14.4199H5.35617V4.78788H8.32331V6.10122H8.36675C8.66399 5.61126 9.09311 5.20836 9.60844 4.9354C10.1238 4.66244 10.706 4.52964 11.2932 4.55112C14.424 4.55112 14.9998 6.54347 14.9998 9.13173V14.4208H14.9961Z" fill="#C38D00"/>
</svg>
